<svg version="1.1" id="Capa_1" xmlns="http://www.w3.org/2000/svg" xmlns:xlink="http://www.w3.org/1999/xlink" x="0px" y="0px" viewBox="0 0 512 512" enable-background="new 0 0 512 512" xml:space="preserve">
<circle fill="#EEFF41" cx="337.5" cy="197.9" r="81"></circle>
<path d="M474.2,357.5c3.1-8.2,4.8-17,4.8-26.3c0-34.3-23.4-63.3-55.2-72.2v-59.9H441c20.7,0,37.6-16.8,37.6-37.4
	c0-5.6-4.5-10.1-10.1-10.1c-5.6,0-10.1,4.5-10.1,10.1c0,9.5-7.8,17.2-17.4,17.2h-27.3c-5.6,0-10.1,4.5-10.1,10.1v52.6L345.3,182
	c-1.9-1.9-4.5-3-7.2-3H173.9c-2.7,0-5.3,1.1-7.2,3l-58.4,59.6v-52.6c0-5.6-4.5-10.1-10.1-10.1H69c-9.6,0-17.4-7.7-17.4-17.2V37.3
	c0-9.5,7.8-17.2,17.4-17.2h372c9.6,0,17.4,7.7,17.4,17.2V72c0,5.6,4.5,10.1,10.1,10.1c5.6,0,10.1-4.5,10.1-10.1V37.3
	C478.5,16.8,461.7,0,441,0H69C48.3,0,31.4,16.8,31.4,37.3v124.5c0,20.6,16.9,37.4,37.6,37.4h19.2v59.9C56.4,267.9,33,296.9,33,331.2
	c0,9.3,1.7,18.1,4.8,26.3c-22.3,19.9-35,47.8-35,77.8v36.8c0,22,18,39.9,40.1,39.9h20.3c5.6,0,10.1-4.5,10.1-10.1
	c0-5.6-4.5-10.1-10.1-10.1H43c-11,0-19.9-8.8-19.9-19.7v-36.8c0-22.5,8.9-43.7,24.8-59.5c13.8,18.4,35.8,30.4,60.7,30.4
	s46.9-12,60.7-30.4c15.9,15.8,24.8,37,24.8,59.5v36.8c0,10.9-8.9,19.7-19.9,19.7h-20.3c-5.6,0-10.1,4.5-10.1,10.1
	s4.5,10.1,10.1,10.1h20.3c22.1,0,40.1-17.9,40.1-39.9v-36.8c0-29.9-12.6-57.8-35-77.8c3.1-8.2,4.8-17.1,4.8-26.3
	c0-37-27.2-67.9-62.8-73.9l57-58.2h155.6l57,58.2c-35.6,6-62.8,36.8-62.8,73.9c0,9.2,1.7,18.1,4.8,26.3c-22.3,19.9-35,47.9-35,77.8
	v36.8c0,22,18,39.9,40.1,39.9H469c22.1,0,40.1-17.9,40.1-39.9v-36.8C509.1,405.4,496.5,377.5,474.2,357.5L474.2,357.5z M163.9,331.2
	c0,30.2-24.8,54.8-55.3,54.8s-55.3-24.6-55.3-54.8c0-30.2,24.8-54.8,55.3-54.8S163.9,301,163.9,331.2z M403.5,276.5
	c30.5,0,55.3,24.6,55.3,54.8c0,30.2-24.8,54.8-55.3,54.8c-30.5,0-55.3-24.6-55.3-54.8C348.1,301,373,276.5,403.5,276.5z
	 M488.9,472.1c0,10.9-8.9,19.7-19.9,19.7H337.9c-11,0-19.9-8.8-19.9-19.7v-36.8c0-22.5,8.9-43.7,24.8-59.5
	c13.8,18.4,35.8,30.4,60.7,30.4c24.8,0,46.9-12,60.7-30.4c15.9,15.8,24.8,37,24.8,59.5L488.9,472.1L488.9,472.1z"></path>
<path d="M113.4,134.5h283.1c5.6,0,10.1-4.5,10.1-10.1s-4.5-10.1-10.1-10.1H113.4c-5.6,0-10.1,4.5-10.1,10.1
	C103.3,130,107.8,134.5,113.4,134.5L113.4,134.5z"></path>
<path d="M113.4,74.9h29.8c5.6,0,10.1-4.5,10.1-10.1s-4.5-10.1-10.1-10.1h-29.8c-5.6,0-10.1,4.5-10.1,10.1S107.8,74.9,113.4,74.9z"></path>
<path d="M396.5,54.7H213.8c-5.6,0-10.1,4.5-10.1,10.1s4.5,10.1,10.1,10.1h182.7c5.6,0,10.1-4.5,10.1-10.1S402.1,54.7,396.5,54.7z"></path>
<path d="M468.4,106.8c-5.6,0-10.1,4.5-10.1,10.1v0.1c0,5.6,4.5,10.1,10.1,10.1s10.1-4.5,10.1-10.1S474,106.8,468.4,106.8z"></path>
<path d="M108.5,491.8L108.5,491.8c-5.6,0-10.1,4.5-10.1,10.1s4.5,10.1,10.1,10.1s10.1-4.5,10.1-10.1
	C118.6,496.3,114.1,491.8,108.5,491.8L108.5,491.8z"></path>
</svg>