<svg version="1.1" id="Layer_1" xmlns="http://www.w3.org/2000/svg" xmlns:xlink="http://www.w3.org/1999/xlink" x="0px" y="0px" viewBox="0 0 512 512" enable-background="new 0 0 512 512" xml:space="preserve">
<circle fill="#EEFF41" cx="194" cy="424" r="81"></circle>
<g id="Icons">
	<g id="Leaves">
		<path d="M488,16c-66.7-0.2-131.7,21.2-185.3,61c-3.6,2.6-4.3,7.6-1.7,11.2s7.6,4.3,11.2,1.7C360.8,53.7,419.4,33.6,480,32.1V136
			c-0.2,159.1-125.9,289.6-284.9,295.7c13.4-40.6,30.3-80,50.6-117.6c11.9,1.1,23.9,1.7,35.9,1.7c18.6,0,37.1-1.3,55.5-4
			c13.8-2,27.4-4.7,40.8-8.2c4.3-1.1,6.9-5.5,5.8-9.8c-1.1-4.3-5.5-6.9-9.8-5.8c-12.9,3.3-26,5.9-39.2,7.8
			c-26.7,3.8-53.7,4.7-80.5,2.6c2.8-4.9,5.6-9.8,8.5-14.6c19.3-31.8,41-62.1,65-90.6c7.2,0.7,14.4,1.1,21.7,1.1
			c11.9,0,23.9-0.9,35.7-2.7c19.9-3,39.4-8.6,58-16.6c4.1-1.7,5.9-6.5,4.2-10.5c-1.7-4.1-6.5-5.9-10.5-4.2
			c-17.3,7.4-35.4,12.6-54,15.4c-13.9,2.1-27.9,2.9-42,2.4c27-30.5,56.5-58.6,88.2-84.2c3.5-2.6,4.3-7.6,1.7-11.2
			c-2.6-3.5-7.6-4.3-11.2-1.7c-0.2,0.1-0.3,0.3-0.5,0.4c-14.9,12-29.2,24.6-43,37.6c-0.5-12.4,2-24.7,7.2-35.9
			c1.7-4.1-0.3-8.8-4.4-10.4c-3.8-1.5-8.1,0-10,3.6c-6.5,13.6-9.5,28.7-8.8,43.7c0.2,4.3,0.8,8.7,1.6,12.9
			c-34.5,34.1-65.6,71.6-92.7,111.8c-2.8-6.9-4.4-14.2-4.9-21.6c-0.8-12.4,1.7-24.8,7.2-35.9c1.8-4,0.1-8.8-4-10.6
			c-3.8-1.8-8.4-0.2-10.4,3.5c-12.6,25.5-11.9,55.5,1.8,80.4c-3.2,5-6.5,10-9.5,15c-22.5,37.2-41.6,76.4-57.2,117V328
			c0-70.9,25.4-139.4,71.7-193.1c2.8-3.4,2.3-8.5-1.1-11.3c-3.3-2.7-8.1-2.3-11,0.8c-25.1,29.1-44.6,62.5-57.4,98.7
			c-4.6-7.2-9.8-13.9-15.5-20.3c-47.2-52.3-112.9-58.6-139-58.9H24c-4.4,0-8,3.6-8,8v96.1c0.6,28.2,6.7,56,17.9,81.9
			c1.3,2.9,4.2,4.8,7.3,4.8c1.1,0,2.2-0.2,3.2-0.7c4-1.8,5.9-6.5,4.1-10.5c0,0,0,0,0,0C38.2,299.7,32.6,274,32,248v-88h7.6
			c23.9,0.3,84.2,6,127.2,53.6c8.2,9.1,15.2,19.1,20.9,29.9c-7.8,27.5-11.7,56-11.7,84.5v36.4c-8.3-27.7-19.4-54.6-32.9-80.2
			c-13.8-26-30.2-50.6-48.9-73.3c-2.7-3.5-7.8-4.1-11.2-1.4s-4.1,7.8-1.4,11.2c0.1,0.1,0.2,0.2,0.2,0.3c18,21.9,33.8,45.6,47.1,70.7
			c22.8,43.1,38.2,89.7,45.5,137.9c-33.8-8.5-64.5-26.1-89-50.9c-3-3.2-8.1-3.3-11.3-0.3c-3.2,3-3.3,8.1-0.3,11.3
			c0,0,0.1,0.1,0.1,0.1c27.9,28.2,63.3,47.9,102,56.5V488c0,4.4,3.6,8,8,8s8-3.6,8-8v-40.2c169-4.5,303.8-142.7,304-311.8V24
			C496,19.6,492.4,16,488,16z"></path>
		<circle cx="56" cy="360" r="8"></circle>
		<circle cx="280" cy="104" r="8"></circle>
	</g>
</g>
</svg>