<svg version="1.1" id="Layer_1" xmlns="http://www.w3.org/2000/svg" xmlns:xlink="http://www.w3.org/1999/xlink" x="0px" y="0px" viewBox="0 0 512 512" enable-background="new 0 0 512 512" xml:space="preserve">
<circle fill="#EEFF41" cx="256.5" cy="266" r="81"></circle>
<path d="M177.8,120.2c-1.5,4.5,0,9.4,3.7,12.4l33,26.6L203.4,200c-1.2,4.6,0.4,9.4,4.3,12.2c3.9,2.8,8.9,2.9,12.9,0.3l35.5-23.2
	l35.5,23.2c1.9,1.3,4.1,1.9,6.2,1.9c2.3,0,4.7-0.7,6.7-2.2c3.9-2.8,5.5-7.6,4.3-12.2l-11.1-40.9l33-26.6c3.7-3,5.2-7.8,3.7-12.4
	c-1.5-4.5-5.5-7.6-10.2-7.8l-42.3-2.1l-15-39.6c-1.7-4.5-5.9-7.3-10.6-7.3s-8.9,2.9-10.6,7.3l-15,39.6l-42.3,2.1
	C183.3,112.6,179.2,115.7,177.8,120.2L177.8,120.2z M234.2,126.2c4.5-0.2,8.5-3.1,10.1-7.3l11.8-31l11.8,31
	c1.6,4.2,5.6,7.1,10.1,7.3l33.2,1.6l-25.9,20.8c-3.5,2.8-5,7.5-3.8,11.8l8.7,32l-27.8-18.2c-1.9-1.2-4.1-1.9-6.2-1.9
	s-4.3,0.6-6.2,1.9L222,192.4l8.7-32c1.2-4.4-0.3-9-3.8-11.8L201,127.8L234.2,126.2z M248,37.4V8c0-4.4,3.6-8,8-8s8,3.6,8,8v29.4
	c0,4.4-3.6,8-8,8S248,41.8,248,37.4z M296.7,84.8c-3-3.3-2.7-8.3,0.6-11.3L330,44c3.3-3,8.3-2.7,11.3,0.6c3,3.3,2.7,8.3-0.6,11.3
	L308,85.3c-1.5,1.4-3.4,2.1-5.4,2.1C300.5,87.4,298.3,86.5,296.7,84.8z M170.7,44.6c3-3.3,8-3.5,11.3-0.6l32.7,29.5
	c3.3,3,3.5,8,0.6,11.3c-1.6,1.8-3.8,2.6-5.9,2.6c-1.9,0-3.8-0.7-5.4-2.1l-32.7-29.5C168,52.9,167.7,47.9,170.7,44.6z M358.6,132.6
	l33,26.6L380.5,200c-1.2,4.6,0.4,9.4,4.3,12.2c3.9,2.8,8.9,2.9,12.9,0.3l35.5-23.2l35.5,23.2c1.9,1.3,4.1,1.9,6.2,1.9
	c2.3,0,4.7-0.7,6.7-2.2c3.9-2.8,5.5-7.6,4.3-12.2l-11.1-40.9l33-26.6c3.7-3,5.2-7.8,3.7-12.4c-1.5-4.5-5.5-7.6-10.2-7.8l-42.3-2.1
	l-15-39.6c-1.7-4.5-5.9-7.3-10.6-7.3c-4.8,0-8.9,2.9-10.6,7.3l-15,39.6l-42.3,2.1c-4.8,0.2-8.8,3.3-10.3,7.8
	C353.5,124.8,354.9,129.6,358.6,132.6L358.6,132.6z M411.3,126.2c4.5-0.2,8.5-3.1,10.1-7.3l11.8-31l11.8,31
	c1.6,4.2,5.6,7.1,10.1,7.3l33.2,1.6l-25.9,20.8c-3.5,2.8-5,7.5-3.8,11.8l8.7,32l-27.8-18.2c-1.9-1.2-4.1-1.9-6.2-1.9
	c-2.2,0-4.3,0.6-6.2,1.9l-27.8,18.2l8.7-32c1.2-4.4-0.3-9-3.8-11.8l-25.9-20.8L411.3,126.2z M4.2,132.6l33,26.6L26.2,200
	c-1.2,4.6,0.4,9.4,4.3,12.2c3.9,2.8,8.9,2.9,12.9,0.3l35.5-23.2l35.5,23.2c1.9,1.3,4.1,1.9,6.2,1.9c2.3,0,4.7-0.7,6.7-2.2
	c3.9-2.8,5.5-7.6,4.3-12.2l-11.1-40.9l33-26.6c3.7-3,5.2-7.8,3.7-12.4c-1.5-4.5-5.5-7.6-10.2-7.8l-42.3-2.1l-15-39.6
	c-1.7-4.5-5.9-7.3-10.6-7.3c-4.8,0-8.9,2.9-10.6,7.3l-15,39.6l-42.3,2.1c-4.8,0.2-8.8,3.3-10.3,7.8C-0.9,124.7,0.5,129.6,4.2,132.6
	L4.2,132.6z M57,126.2c4.5-0.2,8.5-3.1,10.1-7.3l11.8-31l11.8,31c1.6,4.2,5.6,7.1,10.1,7.3l33.2,1.6l-25.9,20.8
	c-3.5,2.8-5,7.5-3.8,11.8l8.7,32L85,174.3c-1.9-1.2-4.1-1.9-6.2-1.9c-2.2,0-4.3,0.6-6.2,1.9l-27.8,18.2l8.7-32
	c1.2-4.4-0.3-9-3.8-11.8l-25.9-20.8L57,126.2z M510.7,424.9c-5.6-18.2-17.2-34.5-32.5-46c-7.3-5.5-15.3-9.8-23.7-12.8
	c11.7-9.2,19.2-23.4,19.2-39.3c0-27.6-22.4-50-50-50c-27.6,0-50,22.4-50,50c0,15.9,7.5,30.1,19.1,39.3c-15.6,5.6-29.4,15.4-40,28.6
	c-5-6.9-10.7-13.4-17.1-19.2c-12.9-11.7-28.1-20.3-44.5-25.4c17.3-11.5,28.8-31.2,28.8-53.5c0-35.4-28.8-64.1-64.1-64.1
	s-64.1,28.8-64.1,64.1c0,22.3,11.5,42,28.8,53.5c-16.3,5.1-31.5,13.7-44.5,25.4c-6.4,5.8-12.1,12.2-17.1,19.2
	c-10.6-13.2-24.4-23-40-28.6c11.6-9.2,19.1-23.4,19.1-39.3c0-27.6-22.4-50-50-50c-27.6,0-50,22.4-50,50c0,16,7.5,30.2,19.2,39.3
	c-8.4,3-16.4,7.3-23.7,12.8c-15.3,11.5-26.8,27.8-32.5,46c-2.6,8.4-1.2,16.9,4.1,24c5.2,7.1,12.9,11,21.7,11h110.6v14.4
	c0,20.8,16.9,37.7,37.7,37.7h161.4c20.8,0,37.7-16.9,37.7-37.7v-14.4H485c8.8,0,16.5-3.9,21.7-11
	C511.9,441.8,513.3,433.3,510.7,424.9L510.7,424.9z M423.7,292.9c18.7,0,34,15.2,34,34c0,18.7-15.2,34-34,34c-18.7,0-34-15.2-34-34
	C389.8,308.1,405,292.9,423.7,292.9z M207.9,296.7c0-26.5,21.6-48.1,48.1-48.1s48.1,21.6,48.1,48.1c0,26.5-21.6,48.1-48.1,48.1
	c0,0,0,0,0,0s0,0,0,0C229.4,344.8,207.9,323.2,207.9,296.7L207.9,296.7z M88.3,292.9c18.7,0,34,15.2,34,34c0,18.7-15.2,34-34,34
	c-18.7,0-34-15.2-34-34C54.3,308.1,69.5,292.9,88.3,292.9z M138.7,443.9H27c-3.7,0-6.7-1.5-8.8-4.5c-2.2-3-2.7-6.2-1.7-9.8
	c9.8-31.6,38.6-52.8,71.7-52.8c25,0,47.9,12.1,61.9,32.6C144.6,420.2,140.7,431.8,138.7,443.9z M358.4,474.3
	c0,11.9-9.7,21.7-21.7,21.7H175.3c-11.9,0-21.7-9.7-21.7-21.7v-22c5.8-52.2,49.7-91.5,102.3-91.5c0,0,0,0,0,0s0,0,0,0
	c52.6,0,96.6,39.3,102.3,91.5L358.4,474.3z M493.8,439.4c-2.2,3-5.2,4.5-8.8,4.5H373.3c-2-12.1-5.9-23.7-11.5-34.5
	c14-20.5,36.8-32.6,61.9-32.6c33.1,0,61.9,21.2,71.7,52.8C496.5,433.2,496,436.5,493.8,439.4z"></path>
</svg>